<svg xmlns="http://www.w3.org/2000/svg" viewBox="0 0 300.13 78.99"><title>logo</title><g id="Layer_2" data-name="Layer 2"><g id="Layer_1-2" data-name="Layer 1"><path d="M10.44,6.33V21.09H33V6.33A6.9,6.9,0,0,1,34.4,1.58,4.8,4.8,0,0,1,38.14,0,5,5,0,0,1,42,1.56a6.78,6.78,0,0,1,1.46,4.76V46.93a6.79,6.79,0,0,1-1.48,4.78,5,5,0,0,1-3.8,1.58,4.76,4.76,0,0,1-3.76-1.6A7,7,0,0,1,33,46.93V29.6H10.44V46.93A6.79,6.79,0,0,1,9,51.71a5,5,0,0,1-3.8,1.58,4.76,4.76,0,0,1-3.76-1.6A7,7,0,0,1,0,46.93V6.33A7,7,0,0,1,1.39,1.58,4.77,4.77,0,0,1,5.17,0,5,5,0,0,1,9,1.56,6.78,6.78,0,0,1,10.44,6.33Z" style="fill:#262851"/><path d="M88.1,9.49H76.71V46.93a6.89,6.89,0,0,1-1.44,4.8,4.84,4.84,0,0,1-3.73,1.56,4.9,4.9,0,0,1-3.78-1.58,6.85,6.85,0,0,1-1.46-4.78V9.49H54.91a5.76,5.76,0,0,1-4-1.18,4,4,0,0,1-1.3-3.11A4,4,0,0,1,51,2,5.86,5.86,0,0,1,54.91.88H88.1a5.84,5.84,0,0,1,4,1.2A4,4,0,0,1,93.45,5.2a4,4,0,0,1-1.34,3.11A5.91,5.91,0,0,1,88.1,9.49Z" style="fill:#262851"/><path d="M117,44.65l-8.26-32.84V47.39a6.47,6.47,0,0,1-1.32,4.43,4.84,4.84,0,0,1-6.94,0,6.41,6.41,0,0,1-1.34-4.45V6.61q0-3.37,1.76-4.55A8.42,8.42,0,0,1,105.68.88h3.23a12.33,12.33,0,0,1,4.24.53,3.56,3.56,0,0,1,2,1.9,29.48,29.48,0,0,1,1.44,4.46L124,36l7.49-28.23A29.48,29.48,0,0,1,133,3.3a3.56,3.56,0,0,1,2-1.9,12.33,12.33,0,0,1,4.24-.53h3.23a8.42,8.42,0,0,1,4.75,1.18q1.76,1.18,1.76,4.55V47.39a6.47,6.47,0,0,1-1.32,4.43A4.5,4.5,0,0,1,144,53.3a4.39,4.39,0,0,1-3.41-1.48,6.42,6.42,0,0,1-1.34-4.43V11.81L131,44.65q-.81,3.2-1.32,4.69a6.48,6.48,0,0,1-1.88,2.72A5.48,5.48,0,0,1,124,53.3,5.56,5.56,0,0,1,119,50.48a11.53,11.53,0,0,1-1.11-2.72Q117.46,46.27,117,44.65Z" style="fill:#262851"/><path d="M169.84,6.33V43.84H191a5.58,5.58,0,0,1,3.88,1.23,4,4,0,0,1,1.35,3.09,3.91,3.91,0,0,1-1.34,3.08,5.73,5.73,0,0,1-3.9,1.18H165.8q-3.41,0-4.9-1.51T159.4,46V6.33a6.9,6.9,0,0,1,1.42-4.75A4.8,4.8,0,0,1,164.57,0a5,5,0,0,1,3.81,1.56A6.78,6.78,0,0,1,169.84,6.33Z" style="fill:#262851"/><path d="M207.28,9.81a5.06,5.06,0,0,1-3.43-1.23,4.35,4.35,0,0,1-1.42-3.48,4.33,4.33,0,0,1,1.46-3.36A4.9,4.9,0,0,1,207.28.42a5,5,0,0,1,3.3,1.2A4.26,4.26,0,0,1,212,5.1a4.39,4.39,0,0,1-1.41,3.46A4.86,4.86,0,0,1,207.28,9.81ZM212,19.72V47.46a6.19,6.19,0,0,1-1.37,4.36,4.54,4.54,0,0,1-3.48,1.48,4.34,4.34,0,0,1-3.43-1.51,6.38,6.38,0,0,1-1.32-4.32V20a6.16,6.16,0,0,1,1.32-4.29,4.43,4.43,0,0,1,3.43-1.44,4.6,4.6,0,0,1,3.48,1.44A5.58,5.58,0,0,1,212,19.72Z" style="fill:#262851"/><path d="M230.66,19.58v1.16a16.8,16.8,0,0,1,5.54-4.9,14.75,14.75,0,0,1,6.91-1.56,13.79,13.79,0,0,1,6.79,1.65,10.5,10.5,0,0,1,4.46,4.68,11.13,11.13,0,0,1,1.23,3.8,39.34,39.34,0,0,1,.28,5.2V47.46a6.36,6.36,0,0,1-1.32,4.36,4.38,4.38,0,0,1-3.43,1.48,4.43,4.43,0,0,1-3.48-1.51,6.32,6.32,0,0,1-1.34-4.32v-16A16,16,0,0,0,245,24.21q-1.32-2.51-5.26-2.51a7.78,7.78,0,0,0-4.68,1.53,8.79,8.79,0,0,0-3.09,4.2q-.7,2.14-.7,8v12a6.23,6.23,0,0,1-1.35,4.38,4.56,4.56,0,0,1-3.5,1.46A4.35,4.35,0,0,1,223,51.79a6.32,6.32,0,0,1-1.34-4.32V19.72a6,6,0,0,1,1.2-4.1,4.14,4.14,0,0,1,3.27-1.35,4.43,4.43,0,0,1,2.29.6A4.29,4.29,0,0,1,230,16.66,6.32,6.32,0,0,1,230.66,19.58Z" style="fill:#262851"/><path d="M292.22,36.14H273.45a12.75,12.75,0,0,0,1.32,5.77,8.82,8.82,0,0,0,8.1,5,11.5,11.5,0,0,0,3.15-.4,10.22,10.22,0,0,0,2.76-1.27,21.05,21.05,0,0,0,2.46-1.85q1.13-1,2.92-2.67a3.15,3.15,0,0,1,2.11-.63,3.47,3.47,0,0,1,2.39.81,2.89,2.89,0,0,1,.91,2.29,6.24,6.24,0,0,1-1,3,12.07,12.07,0,0,1-3.08,3.34,17.51,17.51,0,0,1-5.17,2.65,22.26,22.26,0,0,1-7.15,1.05q-9.25,0-14.38-5.27t-5.13-14.31a23.87,23.87,0,0,1,1.27-7.89,17.41,17.41,0,0,1,3.69-6.24,16,16,0,0,1,6-4,21.45,21.45,0,0,1,7.88-1.39,18.67,18.67,0,0,1,9.65,2.37,15.61,15.61,0,0,1,6,6.13,16.13,16.13,0,0,1,2,7.66q0,3.62-2.07,4.69A12.92,12.92,0,0,1,292.22,36.14Zm-18.77-5.45h17.4q-.35-4.92-2.65-7.37a8,8,0,0,0-6.06-2.44,7.68,7.68,0,0,0-5.89,2.48Q273.94,25.84,273.45,30.69Z" style="fill:#262851"/><path d="M176.6,73.84a3.41,3.41,0,0,1,.77-.43,1.89,1.89,0,0,1,.65-.12,1.68,1.68,0,0,1,.93.23,1.34,1.34,0,0,1,.51.59,1.76,1.76,0,0,1,.13.81,2.77,2.77,0,0,1-.21.91q-.13.3-.34.71l-.45.85-.47.86-.42.73h-1.43l.93-3.07Zm1.56-8.32a1.55,1.55,0,0,1,.62.12,1.55,1.55,0,0,1,.83.83,1.55,1.55,0,0,1,.12.62,1.52,1.52,0,0,1-.12.6,1.57,1.57,0,0,1-.33.5,1.48,1.48,0,0,1-.5.35,1.6,1.6,0,0,1-1.23,0,1.48,1.48,0,0,1-.5-.35,1.57,1.57,0,0,1-.33-.5,1.52,1.52,0,0,1-.12-.6,1.55,1.55,0,0,1,.12-.62,1.55,1.55,0,0,1,.83-.83A1.55,1.55,0,0,1,178.16,65.52Z" style="fill:#262851"/><path d="M183.95,69.39q0-.57,0-1.06a8,8,0,0,1,.29-1.87,8.71,8.71,0,0,1,.35-1,6.2,6.2,0,0,1-.78-.15A8.27,8.27,0,0,1,183,65l.3-.84.3-.87q.49.15.87.24a6.42,6.42,0,0,0,.73.13q.36,0,.75,0H190a6.55,6.55,0,0,1,1.46.16,3.19,3.19,0,0,1,1.29.62,3.14,3.14,0,0,1,.93,1.23,5.07,5.07,0,0,1,.35,2.05v8.11H183.95ZM192,68.1a6.08,6.08,0,0,0-.11-1.24,1.68,1.68,0,0,0-.37-.79,1.46,1.46,0,0,0-.73-.42,4.51,4.51,0,0,0-1.15-.12h-3.07a5.3,5.3,0,0,0-.36,1,7.15,7.15,0,0,0-.18,1q-.05.47-.06.92t0,.88v4.88h6Z" style="fill:#262851"/><path d="M201.47,63.74v3.8q0,.63,0,1.05t0,.77q0,.35-.09.68t-.15.73l-2-.29.11-.64q0-.29.08-.62t.05-.74q0-.41,0-1v-2h-2.68V63.74Z" style="fill:#262851"/><path d="M207.8,65.52h-.93q-.41,0-.79-.06a6,6,0,0,1-.77-.15,7.77,7.77,0,0,1-.84-.28l.3-.84.3-.87q.49.15.87.23a7.35,7.35,0,0,0,.73.12q.36,0,.75.05h2a6.55,6.55,0,0,1,1.46.16,3.19,3.19,0,0,1,1.29.62,3.32,3.32,0,0,1,.92,1.27,5.2,5.2,0,0,1,.36,2.09v8h-2V68.1a6,6,0,0,0-.11-1.22,1.69,1.69,0,0,0-.37-.8,1.5,1.5,0,0,0-.73-.43,4.36,4.36,0,0,0-1.16-.13Z" style="fill:#262851"/><path d="M218.3,74.17a17.6,17.6,0,0,1-.57-2.17,10.67,10.67,0,0,1-.2-2,8.7,8.7,0,0,1,.29-2.26,8.87,8.87,0,0,1,.95-2.21l-.58,0-.56-.08a5.57,5.57,0,0,1-.57-.14l-.63-.22.3-.84.3-.87q.49.15.87.23a7.35,7.35,0,0,0,.73.12q.36,0,.75.05h4a6.55,6.55,0,0,1,1.46.16,3.21,3.21,0,0,1,1.31.63,3.16,3.16,0,0,1,.93,1.25,5.2,5.2,0,0,1,.36,2.09v8h-2V68.1a6.76,6.76,0,0,0-.09-1.22,1.67,1.67,0,0,0-.35-.8,1.42,1.42,0,0,0-.7-.43,4.23,4.23,0,0,0-1.15-.13h-2.3a5.58,5.58,0,0,0-.92,2,9.73,9.73,0,0,0-.26,2.27,11.87,11.87,0,0,0,.15,1.87,15.38,15.38,0,0,0,.38,1.75l.39,1.25,0,.6q0,.3-.08.64h-4.64V74.17Z" style="fill:#262851"/><path d="M230.17,76q0-.33,0-.75t0-.91q0-.49,0-1l0-1a12.59,12.59,0,0,1,.13-1.56,6.87,6.87,0,0,1,.3-1.25,5.35,5.35,0,0,1,.5-1,7.3,7.3,0,0,1,.71-.95q-.41-.59-.7-1.07a8.16,8.16,0,0,1-.46-.88,6.73,6.73,0,0,1-.32-.83q-.13-.42-.22-.79a9.13,9.13,0,0,1,.91-.35q.49-.16,1-.28l.09.28.09.28q.12.38.26.75a8.14,8.14,0,0,0,.38.82q.23.45.59,1t.9,1.22q.19.25.37.45l.43.49.61.7.94,1.07,0,.06a3.46,3.46,0,0,0,.69-.64,4.07,4.07,0,0,0,.46-.73,6.33,6.33,0,0,0,.34-.84q.15-.45.3-1l.25-.92.24-.92-1.71-.33.32-1.64,3.28.57.06,1.51q-.12.56-.3,1.23L240.34,68q-.21.74-.42,1.28a6.25,6.25,0,0,1-.46,1,4.51,4.51,0,0,1-.62.81,7.32,7.32,0,0,1-.88.77l2.8,3.29-1.43,1.27-6.26-7.23a2.88,2.88,0,0,0-.53,1,7.22,7.22,0,0,0-.24,1.24,12.54,12.54,0,0,0-.07,1.35q0,.7,0,1.38,0,.38,0,.81t0,1.06Z" style="fill:#262851"/><path d="M252.41,74.17a17.6,17.6,0,0,1-.57-2.17,10.67,10.67,0,0,1-.2-2,8.7,8.7,0,0,1,.29-2.26,8.87,8.87,0,0,1,.95-2.21l-.58,0-.56-.08a5.57,5.57,0,0,1-.57-.14l-.63-.22.3-.84.3-.87q.49.15.87.23a7.35,7.35,0,0,0,.73.12q.36,0,.75.05h4a6.55,6.55,0,0,1,1.46.16,3.21,3.21,0,0,1,1.31.63,3.16,3.16,0,0,1,.93,1.25,5.2,5.2,0,0,1,.36,2.09v8h-2V68.1a6.76,6.76,0,0,0-.09-1.22,1.67,1.67,0,0,0-.35-.8,1.42,1.42,0,0,0-.7-.43,4.23,4.23,0,0,0-1.15-.13h-2.3a5.58,5.58,0,0,0-.92,2,9.73,9.73,0,0,0-.26,2.27,11.87,11.87,0,0,0,.15,1.87,15.38,15.38,0,0,0,.38,1.75l.39,1.25,0,.6q0,.3-.08.64h-4.64V74.17Z" style="fill:#262851"/><path d="M268.95,63.74v3.8q0,.63,0,1.05t0,.77q0,.35-.09.68t-.15.73l-2-.29.11-.64q0-.29.08-.62t.05-.74q0-.41,0-1v-2h-2.68V63.74Z" style="fill:#262851"/><path d="M276.68,63.74v3.8q0,.63,0,1.05t0,.77q0,.35-.09.68t-.15.73l-2-.29.11-.64q0-.29.08-.62t.05-.74q0-.41,0-1v-2H272V63.74Z" style="fill:#262851"/><path d="M285.21,63.74l0,.4q0,.4.11,1.08t.17,1.61l.21,2q.11,1.07.23,2.22t.22,2.29q0,.52.07.84t0,.59q0,.26,0,.52t-.07.63h-7V74.14h5.07l-.9-8.61h-2.86V63.74Z" style="fill:#262851"/><path d="M292.89,65.52H292q-.41,0-.79-.06a6,6,0,0,1-.77-.15,7.77,7.77,0,0,1-.84-.28l.3-.84.3-.87q.49.15.87.23a7.35,7.35,0,0,0,.73.12q.36,0,.75.05h1.26a6.48,6.48,0,0,1,1.45.16,3.1,3.1,0,0,1,2.2,1.85,5.07,5.07,0,0,1,.35,2.05v6.33h2.16v1.78h-11.1V74.14h6.91v-6a6,6,0,0,0-.11-1.22,1.72,1.72,0,0,0-.37-.8,1.46,1.46,0,0,0-.72-.43,4.36,4.36,0,0,0-1.16-.13Z" style="fill:#262851"/></g></g></svg>